<mxfile host="app.diagrams.net" agent="Mozilla/5.0 (Windows NT 10.0; Win64; x64; rv:132.0) Gecko/20100101 Firefox/132.0" version="24.8.8">
  <diagram name="Side-1" id="deRMLiV6a7HYo1vJSopw">
    <mxGraphModel dx="1061" dy="534" grid="1" gridSize="10" guides="1" tooltips="1" connect="1" arrows="1" fold="1" page="1" pageScale="1" pageWidth="827" pageHeight="1169" math="1" shadow="0">
      <root>
        <mxCell id="0" />
        <mxCell id="1" parent="0" />
        <mxCell id="-uq1_uJ6FHPWzIbG6p9E-4" style="edgeStyle=orthogonalEdgeStyle;rounded=0;orthogonalLoop=1;jettySize=auto;html=1;entryX=0;entryY=0.5;entryDx=0;entryDy=0;fontFamily=Computer modern;fontSource=https%3A%2F%2Fcdn.jsdelivr.net%2Fgh%2Fvsalvino%2Fcomputer-modern%40main%2Ffonts%2Ftypewriter.css;" edge="1" parent="1" source="-uq1_uJ6FHPWzIbG6p9E-1" target="-uq1_uJ6FHPWzIbG6p9E-2">
          <mxGeometry relative="1" as="geometry" />
        </mxCell>
        <mxCell id="-uq1_uJ6FHPWzIbG6p9E-7" style="edgeStyle=orthogonalEdgeStyle;rounded=0;orthogonalLoop=1;jettySize=auto;html=1;entryX=0.5;entryY=0;entryDx=0;entryDy=0;exitX=0.75;exitY=1;exitDx=0;exitDy=0;fontFamily=Computer modern;fontSource=https%3A%2F%2Fcdn.jsdelivr.net%2Fgh%2Fvsalvino%2Fcomputer-modern%40main%2Ffonts%2Ftypewriter.css;" edge="1" parent="1" source="-uq1_uJ6FHPWzIbG6p9E-1" target="-uq1_uJ6FHPWzIbG6p9E-5">
          <mxGeometry relative="1" as="geometry">
            <Array as="points">
              <mxPoint x="270" y="300" />
              <mxPoint x="360" y="300" />
            </Array>
          </mxGeometry>
        </mxCell>
        <mxCell id="-uq1_uJ6FHPWzIbG6p9E-1" value="Transmitting" style="rounded=0;whiteSpace=wrap;html=1;fontFamily=Computer modern;fontSource=https%3A%2F%2Fcdn.jsdelivr.net%2Fgh%2Fvsalvino%2Fcomputer-modern%40main%2Ffonts%2Ftypewriter.css;" vertex="1" parent="1">
          <mxGeometry x="180" y="180" width="120" height="60" as="geometry" />
        </mxCell>
        <mxCell id="-uq1_uJ6FHPWzIbG6p9E-9" style="edgeStyle=orthogonalEdgeStyle;rounded=0;orthogonalLoop=1;jettySize=auto;html=1;entryX=0.5;entryY=0;entryDx=0;entryDy=0;fontFamily=Computer modern;fontSource=https%3A%2F%2Fcdn.jsdelivr.net%2Fgh%2Fvsalvino%2Fcomputer-modern%40main%2Ffonts%2Ftypewriter.css;" edge="1" parent="1" source="-uq1_uJ6FHPWzIbG6p9E-2" target="-uq1_uJ6FHPWzIbG6p9E-3">
          <mxGeometry relative="1" as="geometry" />
        </mxCell>
        <mxCell id="-uq1_uJ6FHPWzIbG6p9E-10" style="edgeStyle=orthogonalEdgeStyle;rounded=0;orthogonalLoop=1;jettySize=auto;html=1;entryX=0.75;entryY=0;entryDx=0;entryDy=0;fontFamily=Computer modern;fontSource=https%3A%2F%2Fcdn.jsdelivr.net%2Fgh%2Fvsalvino%2Fcomputer-modern%40main%2Ffonts%2Ftypewriter.css;" edge="1" parent="1" source="-uq1_uJ6FHPWzIbG6p9E-2" target="-uq1_uJ6FHPWzIbG6p9E-5">
          <mxGeometry relative="1" as="geometry">
            <Array as="points">
              <mxPoint x="530" y="300" />
              <mxPoint x="390" y="300" />
            </Array>
          </mxGeometry>
        </mxCell>
        <mxCell id="-uq1_uJ6FHPWzIbG6p9E-2" value="&lt;div&gt;Listening for&lt;/div&gt;&lt;div&gt;a response&lt;/div&gt;" style="rounded=0;whiteSpace=wrap;html=1;fontFamily=Computer modern;fontSource=https%3A%2F%2Fcdn.jsdelivr.net%2Fgh%2Fvsalvino%2Fcomputer-modern%40main%2Ffonts%2Ftypewriter.css;" vertex="1" parent="1">
          <mxGeometry x="510" y="180" width="120" height="60" as="geometry" />
        </mxCell>
        <mxCell id="-uq1_uJ6FHPWzIbG6p9E-16" style="edgeStyle=orthogonalEdgeStyle;rounded=0;orthogonalLoop=1;jettySize=auto;html=1;fontFamily=Computer modern;fontSource=https%3A%2F%2Fcdn.jsdelivr.net%2Fgh%2Fvsalvino%2Fcomputer-modern%40main%2Ffonts%2Ftypewriter.css;entryX=1;entryY=0.5;entryDx=0;entryDy=0;" edge="1" parent="1" source="-uq1_uJ6FHPWzIbG6p9E-3" target="-uq1_uJ6FHPWzIbG6p9E-2">
          <mxGeometry relative="1" as="geometry">
            <mxPoint x="690" y="220" as="targetPoint" />
            <Array as="points">
              <mxPoint x="700" y="330" />
              <mxPoint x="700" y="210" />
            </Array>
          </mxGeometry>
        </mxCell>
        <mxCell id="-uq1_uJ6FHPWzIbG6p9E-21" style="edgeStyle=orthogonalEdgeStyle;rounded=0;orthogonalLoop=1;jettySize=auto;html=1;entryX=0.5;entryY=1;entryDx=0;entryDy=0;fontFamily=Computer modern;fontSource=https%3A%2F%2Fcdn.jsdelivr.net%2Fgh%2Fvsalvino%2Fcomputer-modern%40main%2Ffonts%2Ftypewriter.css;" edge="1" parent="1" source="-uq1_uJ6FHPWzIbG6p9E-3" target="-uq1_uJ6FHPWzIbG6p9E-5">
          <mxGeometry relative="1" as="geometry">
            <Array as="points">
              <mxPoint x="570" y="400" />
              <mxPoint x="360" y="400" />
            </Array>
          </mxGeometry>
        </mxCell>
        <mxCell id="-uq1_uJ6FHPWzIbG6p9E-3" value="Retrying" style="rounded=0;whiteSpace=wrap;html=1;fontFamily=Computer modern;fontSource=https%3A%2F%2Fcdn.jsdelivr.net%2Fgh%2Fvsalvino%2Fcomputer-modern%40main%2Ffonts%2Ftypewriter.css;" vertex="1" parent="1">
          <mxGeometry x="510" y="320" width="120" height="60" as="geometry" />
        </mxCell>
        <mxCell id="-uq1_uJ6FHPWzIbG6p9E-6" style="edgeStyle=orthogonalEdgeStyle;rounded=0;orthogonalLoop=1;jettySize=auto;html=1;entryX=0.5;entryY=1;entryDx=0;entryDy=0;fontFamily=Computer modern;fontSource=https%3A%2F%2Fcdn.jsdelivr.net%2Fgh%2Fvsalvino%2Fcomputer-modern%40main%2Ffonts%2Ftypewriter.css;exitX=0.015;exitY=0.174;exitDx=0;exitDy=0;exitPerimeter=0;" edge="1" parent="1" source="-uq1_uJ6FHPWzIbG6p9E-5" target="-uq1_uJ6FHPWzIbG6p9E-1">
          <mxGeometry relative="1" as="geometry">
            <Array as="points">
              <mxPoint x="240" y="330" />
            </Array>
          </mxGeometry>
        </mxCell>
        <mxCell id="-uq1_uJ6FHPWzIbG6p9E-26" style="edgeStyle=orthogonalEdgeStyle;rounded=0;orthogonalLoop=1;jettySize=auto;html=1;" edge="1" parent="1">
          <mxGeometry relative="1" as="geometry">
            <mxPoint x="190" y="240" as="targetPoint" />
            <mxPoint x="320" y="370" as="sourcePoint" />
            <Array as="points">
              <mxPoint x="320" y="400" />
              <mxPoint x="190" y="400" />
            </Array>
          </mxGeometry>
        </mxCell>
        <mxCell id="-uq1_uJ6FHPWzIbG6p9E-5" value="Idle" style="rounded=0;whiteSpace=wrap;html=1;fontFamily=Computer modern;fontSource=https%3A%2F%2Fcdn.jsdelivr.net%2Fgh%2Fvsalvino%2Fcomputer-modern%40main%2Ffonts%2Ftypewriter.css;" vertex="1" parent="1">
          <mxGeometry x="300" y="320" width="120" height="60" as="geometry" />
        </mxCell>
        <mxCell id="-uq1_uJ6FHPWzIbG6p9E-11" value="Message transmitted" style="text;html=1;align=center;verticalAlign=middle;whiteSpace=wrap;rounded=0;fontFamily=Computer modern;fontSource=https%3A%2F%2Fcdn.jsdelivr.net%2Fgh%2Fvsalvino%2Fcomputer-modern%40main%2Ffonts%2Ftypewriter.css;" vertex="1" parent="1">
          <mxGeometry x="330" y="190" width="140" height="20" as="geometry" />
        </mxCell>
        <mxCell id="-uq1_uJ6FHPWzIbG6p9E-12" value="Valid response from the network" style="text;html=1;align=center;verticalAlign=middle;whiteSpace=wrap;rounded=0;fontFamily=Computer modern;fontSource=https%3A%2F%2Fcdn.jsdelivr.net%2Fgh%2Fvsalvino%2Fcomputer-modern%40main%2Ffonts%2Ftypewriter.css;" vertex="1" parent="1">
          <mxGeometry x="410" y="270" width="110" height="30" as="geometry" />
        </mxCell>
        <mxCell id="-uq1_uJ6FHPWzIbG6p9E-13" value="Backstopper if my_ID=0, and no traffic for 5.5x timeout time" style="text;html=1;align=center;verticalAlign=middle;whiteSpace=wrap;rounded=0;fontFamily=Computer modern;fontSource=https%3A%2F%2Fcdn.jsdelivr.net%2Fgh%2Fvsalvino%2Fcomputer-modern%40main%2Ffonts%2Ftypewriter.css;" vertex="1" parent="1">
          <mxGeometry x="190" y="400" width="130" height="50" as="geometry" />
        </mxCell>
        <mxCell id="-uq1_uJ6FHPWzIbG6p9E-14" value="Recieved a message while waiting to transmit" style="text;html=1;align=center;verticalAlign=middle;whiteSpace=wrap;rounded=0;fontFamily=Computer modern;fontSource=https%3A%2F%2Fcdn.jsdelivr.net%2Fgh%2Fvsalvino%2Fcomputer-modern%40main%2Ffonts%2Ftypewriter.css;" vertex="1" parent="1">
          <mxGeometry x="270" y="250" width="120" height="50" as="geometry" />
        </mxCell>
        <mxCell id="-uq1_uJ6FHPWzIbG6p9E-18" value="&lt;div&gt;No valid response&lt;/div&gt;timeout" style="text;html=1;align=center;verticalAlign=middle;whiteSpace=wrap;rounded=0;fontFamily=Computer modern;fontSource=https%3A%2F%2Fcdn.jsdelivr.net%2Fgh%2Fvsalvino%2Fcomputer-modern%40main%2Ffonts%2Ftypewriter.css;" vertex="1" parent="1">
          <mxGeometry x="570" y="260" width="70" height="40" as="geometry" />
        </mxCell>
        <mxCell id="-uq1_uJ6FHPWzIbG6p9E-19" value="Timeout after n number of retries" style="text;html=1;align=center;verticalAlign=middle;whiteSpace=wrap;rounded=0;fontFamily=Computer modern;fontSource=https%3A%2F%2Fcdn.jsdelivr.net%2Fgh%2Fvsalvino%2Fcomputer-modern%40main%2Ffonts%2Ftypewriter.css;" vertex="1" parent="1">
          <mxGeometry x="360" y="400" width="210" height="30" as="geometry" />
        </mxCell>
        <mxCell id="-uq1_uJ6FHPWzIbG6p9E-23" value="Message transmitted" style="text;html=1;align=center;verticalAlign=middle;whiteSpace=wrap;rounded=0;fontFamily=Computer modern;fontSource=https%3A%2F%2Fcdn.jsdelivr.net%2Fgh%2Fvsalvino%2Fcomputer-modern%40main%2Ffonts%2Ftypewriter.css;" vertex="1" parent="1">
          <mxGeometry x="630" y="190" width="140" height="20" as="geometry" />
        </mxCell>
        <mxCell id="-uq1_uJ6FHPWzIbG6p9E-27" value="&lt;div&gt;Recieved my_ID-1&lt;br&gt;&lt;/div&gt;" style="text;html=1;align=center;verticalAlign=middle;whiteSpace=wrap;rounded=0;fontFamily=Computer modern;fontSource=https%3A%2F%2Fcdn.jsdelivr.net%2Fgh%2Fvsalvino%2Fcomputer-modern%40main%2Ffonts%2Ftypewriter.css;" vertex="1" parent="1">
          <mxGeometry x="230" y="330" width="70" height="30" as="geometry" />
        </mxCell>
        <mxCell id="-uq1_uJ6FHPWzIbG6p9E-28" value="" style="ellipse;whiteSpace=wrap;html=1;aspect=fixed;" vertex="1" parent="1">
          <mxGeometry x="310" y="670" width="20" height="20" as="geometry" />
        </mxCell>
        <mxCell id="-uq1_uJ6FHPWzIbG6p9E-29" value="" style="ellipse;whiteSpace=wrap;html=1;aspect=fixed;" vertex="1" parent="1">
          <mxGeometry x="490" y="550" width="20" height="20" as="geometry" />
        </mxCell>
        <mxCell id="-uq1_uJ6FHPWzIbG6p9E-31" value="" style="ellipse;whiteSpace=wrap;html=1;aspect=fixed;fillColor=none;dashed=1;" vertex="1" parent="1">
          <mxGeometry x="290" y="650" width="60" height="60" as="geometry" />
        </mxCell>
        <mxCell id="-uq1_uJ6FHPWzIbG6p9E-32" value="" style="ellipse;whiteSpace=wrap;html=1;aspect=fixed;" vertex="1" parent="1">
          <mxGeometry x="120" y="550" width="20" height="20" as="geometry" />
        </mxCell>
        <mxCell id="-uq1_uJ6FHPWzIbG6p9E-34" value="" style="endArrow=classic;html=1;rounded=0;" edge="1" parent="1">
          <mxGeometry width="50" height="50" relative="1" as="geometry">
            <mxPoint x="130" y="560" as="sourcePoint" />
            <mxPoint x="200" y="600" as="targetPoint" />
          </mxGeometry>
        </mxCell>
        <mxCell id="-uq1_uJ6FHPWzIbG6p9E-35" value="" style="endArrow=classic;html=1;rounded=0;" edge="1" parent="1">
          <mxGeometry width="50" height="50" relative="1" as="geometry">
            <mxPoint x="200" y="600" as="sourcePoint" />
            <mxPoint x="270" y="640" as="targetPoint" />
          </mxGeometry>
        </mxCell>
        <mxCell id="-uq1_uJ6FHPWzIbG6p9E-36" value="" style="endArrow=classic;html=1;rounded=0;" edge="1" parent="1">
          <mxGeometry width="50" height="50" relative="1" as="geometry">
            <mxPoint x="270" y="640" as="sourcePoint" />
            <mxPoint x="310" y="660" as="targetPoint" />
          </mxGeometry>
        </mxCell>
        <mxCell id="-uq1_uJ6FHPWzIbG6p9E-38" value="" style="endArrow=classic;html=1;rounded=0;" edge="1" parent="1">
          <mxGeometry width="50" height="50" relative="1" as="geometry">
            <mxPoint x="260" y="660" as="sourcePoint" />
            <mxPoint x="300" y="670" as="targetPoint" />
          </mxGeometry>
        </mxCell>
        <mxCell id="-uq1_uJ6FHPWzIbG6p9E-39" value="" style="ellipse;whiteSpace=wrap;html=1;aspect=fixed;" vertex="1" parent="1">
          <mxGeometry x="120" y="700" width="20" height="20" as="geometry" />
        </mxCell>
        <mxCell id="-uq1_uJ6FHPWzIbG6p9E-40" value="" style="endArrow=classic;html=1;rounded=0;" edge="1" parent="1" source="-uq1_uJ6FHPWzIbG6p9E-33">
          <mxGeometry width="50" height="50" relative="1" as="geometry">
            <mxPoint x="130" y="600" as="sourcePoint" />
            <mxPoint x="210" y="630" as="targetPoint" />
          </mxGeometry>
        </mxCell>
        <mxCell id="-uq1_uJ6FHPWzIbG6p9E-41" value="" style="endArrow=classic;html=1;rounded=0;" edge="1" parent="1">
          <mxGeometry width="50" height="50" relative="1" as="geometry">
            <mxPoint x="210" y="630" as="sourcePoint" />
            <mxPoint x="260" y="660" as="targetPoint" />
          </mxGeometry>
        </mxCell>
        <mxCell id="-uq1_uJ6FHPWzIbG6p9E-43" value="" style="endArrow=classic;html=1;rounded=0;" edge="1" parent="1">
          <mxGeometry width="50" height="50" relative="1" as="geometry">
            <mxPoint x="130" y="710" as="sourcePoint" />
            <mxPoint x="190" y="700" as="targetPoint" />
          </mxGeometry>
        </mxCell>
        <mxCell id="-uq1_uJ6FHPWzIbG6p9E-44" value="&lt;font style=&quot;font-size: 17px;&quot;&gt;&lt;b&gt;$$\dots$$&lt;/b&gt;&lt;/font&gt;" style="text;html=1;align=center;verticalAlign=middle;whiteSpace=wrap;rounded=0;" vertex="1" parent="1">
          <mxGeometry x="100" y="640" width="60" height="30" as="geometry" />
        </mxCell>
        <mxCell id="-uq1_uJ6FHPWzIbG6p9E-45" value="" style="endArrow=classic;html=1;rounded=0;" edge="1" parent="1" target="-uq1_uJ6FHPWzIbG6p9E-33">
          <mxGeometry width="50" height="50" relative="1" as="geometry">
            <mxPoint x="130" y="600" as="sourcePoint" />
            <mxPoint x="210" y="630" as="targetPoint" />
          </mxGeometry>
        </mxCell>
        <mxCell id="-uq1_uJ6FHPWzIbG6p9E-33" value="" style="ellipse;whiteSpace=wrap;html=1;aspect=fixed;" vertex="1" parent="1">
          <mxGeometry x="120" y="590" width="20" height="20" as="geometry" />
        </mxCell>
        <mxCell id="-uq1_uJ6FHPWzIbG6p9E-46" value="" style="ellipse;whiteSpace=wrap;html=1;aspect=fixed;" vertex="1" parent="1">
          <mxGeometry x="160" y="550" width="20" height="20" as="geometry" />
        </mxCell>
        <mxCell id="-uq1_uJ6FHPWzIbG6p9E-48" value="" style="ellipse;whiteSpace=wrap;html=1;aspect=fixed;" vertex="1" parent="1">
          <mxGeometry x="490" y="590" width="20" height="20" as="geometry" />
        </mxCell>
        <mxCell id="-uq1_uJ6FHPWzIbG6p9E-49" value="" style="endArrow=classic;html=1;rounded=0;" edge="1" parent="1">
          <mxGeometry width="50" height="50" relative="1" as="geometry">
            <mxPoint x="190" y="700" as="sourcePoint" />
            <mxPoint x="270" y="730" as="targetPoint" />
          </mxGeometry>
        </mxCell>
        <mxCell id="-uq1_uJ6FHPWzIbG6p9E-50" value="" style="endArrow=classic;html=1;rounded=0;" edge="1" parent="1">
          <mxGeometry width="50" height="50" relative="1" as="geometry">
            <mxPoint x="270" y="730" as="sourcePoint" />
            <mxPoint x="310" y="700" as="targetPoint" />
          </mxGeometry>
        </mxCell>
        <mxCell id="-uq1_uJ6FHPWzIbG6p9E-51" value="" style="endArrow=classic;html=1;rounded=0;" edge="1" parent="1">
          <mxGeometry width="50" height="50" relative="1" as="geometry">
            <mxPoint x="170" y="560" as="sourcePoint" />
            <mxPoint x="240" y="580" as="targetPoint" />
          </mxGeometry>
        </mxCell>
        <mxCell id="-uq1_uJ6FHPWzIbG6p9E-52" value="" style="endArrow=classic;html=1;rounded=0;" edge="1" parent="1">
          <mxGeometry width="50" height="50" relative="1" as="geometry">
            <mxPoint x="240" y="580" as="sourcePoint" />
            <mxPoint x="250" y="610" as="targetPoint" />
          </mxGeometry>
        </mxCell>
        <mxCell id="-uq1_uJ6FHPWzIbG6p9E-53" value="" style="endArrow=classic;html=1;rounded=0;" edge="1" parent="1">
          <mxGeometry width="50" height="50" relative="1" as="geometry">
            <mxPoint x="300" y="610" as="sourcePoint" />
            <mxPoint x="320" y="660" as="targetPoint" />
          </mxGeometry>
        </mxCell>
        <mxCell id="-uq1_uJ6FHPWzIbG6p9E-56" value="" style="endArrow=classic;html=1;rounded=0;" edge="1" parent="1">
          <mxGeometry width="50" height="50" relative="1" as="geometry">
            <mxPoint x="250" y="610" as="sourcePoint" />
            <mxPoint x="300" y="610" as="targetPoint" />
          </mxGeometry>
        </mxCell>
        <mxCell id="-uq1_uJ6FHPWzIbG6p9E-57" value="&lt;font style=&quot;font-size: 17px;&quot;&gt;&lt;b&gt;$$\dots$$&lt;/b&gt;&lt;/font&gt;" style="text;html=1;align=center;verticalAlign=middle;whiteSpace=wrap;rounded=0;" vertex="1" parent="1">
          <mxGeometry x="290" y="545" width="60" height="30" as="geometry" />
        </mxCell>
        <mxCell id="-uq1_uJ6FHPWzIbG6p9E-59" value="" style="ellipse;whiteSpace=wrap;html=1;aspect=fixed;" vertex="1" parent="1">
          <mxGeometry x="120" y="740" width="20" height="20" as="geometry" />
        </mxCell>
        <mxCell id="-uq1_uJ6FHPWzIbG6p9E-61" value="" style="endArrow=classic;html=1;rounded=0;" edge="1" parent="1" source="-uq1_uJ6FHPWzIbG6p9E-58">
          <mxGeometry width="50" height="50" relative="1" as="geometry">
            <mxPoint x="460" y="560" as="sourcePoint" />
            <mxPoint x="400" y="600" as="targetPoint" />
          </mxGeometry>
        </mxCell>
        <mxCell id="-uq1_uJ6FHPWzIbG6p9E-64" value="" style="endArrow=classic;html=1;rounded=0;" edge="1" parent="1">
          <mxGeometry width="50" height="50" relative="1" as="geometry">
            <mxPoint x="180" y="730" as="sourcePoint" />
            <mxPoint x="240" y="740" as="targetPoint" />
          </mxGeometry>
        </mxCell>
        <mxCell id="-uq1_uJ6FHPWzIbG6p9E-65" value="" style="endArrow=classic;html=1;rounded=0;" edge="1" parent="1">
          <mxGeometry width="50" height="50" relative="1" as="geometry">
            <mxPoint x="130" y="750" as="sourcePoint" />
            <mxPoint x="180" y="730" as="targetPoint" />
          </mxGeometry>
        </mxCell>
        <mxCell id="-uq1_uJ6FHPWzIbG6p9E-66" value="" style="endArrow=classic;html=1;rounded=0;" edge="1" parent="1">
          <mxGeometry width="50" height="50" relative="1" as="geometry">
            <mxPoint x="240" y="740" as="sourcePoint" />
            <mxPoint x="290" y="740" as="targetPoint" />
          </mxGeometry>
        </mxCell>
        <mxCell id="-uq1_uJ6FHPWzIbG6p9E-67" value="" style="endArrow=classic;html=1;rounded=0;" edge="1" parent="1">
          <mxGeometry width="50" height="50" relative="1" as="geometry">
            <mxPoint x="290" y="740" as="sourcePoint" />
            <mxPoint x="340" y="690" as="targetPoint" />
          </mxGeometry>
        </mxCell>
        <mxCell id="-uq1_uJ6FHPWzIbG6p9E-68" value="" style="ellipse;whiteSpace=wrap;html=1;aspect=fixed;" vertex="1" parent="1">
          <mxGeometry x="160" y="740" width="20" height="20" as="geometry" />
        </mxCell>
        <mxCell id="-uq1_uJ6FHPWzIbG6p9E-70" value="" style="endArrow=classic;html=1;rounded=0;" edge="1" parent="1">
          <mxGeometry width="50" height="50" relative="1" as="geometry">
            <mxPoint x="170" y="750" as="sourcePoint" />
            <mxPoint x="220" y="760" as="targetPoint" />
          </mxGeometry>
        </mxCell>
        <mxCell id="-uq1_uJ6FHPWzIbG6p9E-71" value="" style="endArrow=classic;html=1;rounded=0;" edge="1" parent="1">
          <mxGeometry width="50" height="50" relative="1" as="geometry">
            <mxPoint x="220" y="760" as="sourcePoint" />
            <mxPoint x="260" y="750" as="targetPoint" />
          </mxGeometry>
        </mxCell>
        <mxCell id="-uq1_uJ6FHPWzIbG6p9E-72" value="" style="endArrow=classic;html=1;rounded=0;" edge="1" parent="1">
          <mxGeometry width="50" height="50" relative="1" as="geometry">
            <mxPoint x="260" y="750" as="sourcePoint" />
            <mxPoint x="300" y="750" as="targetPoint" />
          </mxGeometry>
        </mxCell>
        <mxCell id="-uq1_uJ6FHPWzIbG6p9E-73" value="" style="endArrow=classic;html=1;rounded=0;" edge="1" parent="1">
          <mxGeometry width="50" height="50" relative="1" as="geometry">
            <mxPoint x="300" y="749.66" as="sourcePoint" />
            <mxPoint x="320" y="700" as="targetPoint" />
          </mxGeometry>
        </mxCell>
        <mxCell id="-uq1_uJ6FHPWzIbG6p9E-76" value="&lt;font style=&quot;font-size: 17px;&quot;&gt;&lt;b&gt;$$\dots$$&lt;/b&gt;&lt;/font&gt;" style="text;html=1;align=center;verticalAlign=middle;whiteSpace=wrap;rounded=0;" vertex="1" parent="1">
          <mxGeometry x="290" y="735" width="60" height="30" as="geometry" />
        </mxCell>
        <mxCell id="-uq1_uJ6FHPWzIbG6p9E-78" value="&lt;font style=&quot;font-size: 17px;&quot;&gt;&lt;b&gt;$$\dots$$&lt;/b&gt;&lt;/font&gt;" style="text;html=1;align=center;verticalAlign=middle;whiteSpace=wrap;rounded=0;" vertex="1" parent="1">
          <mxGeometry x="470" y="640" width="60" height="30" as="geometry" />
        </mxCell>
        <mxCell id="-uq1_uJ6FHPWzIbG6p9E-79" value="&lt;font face=&quot;Computer modern&quot;&gt;Inital position guess: &lt;br&gt;&lt;/font&gt;" style="text;html=1;align=center;verticalAlign=middle;whiteSpace=wrap;rounded=0;" vertex="1" parent="1">
          <mxGeometry x="257.5" y="525" width="110" height="30" as="geometry" />
        </mxCell>
        <mxCell id="-uq1_uJ6FHPWzIbG6p9E-80" value="&lt;font style=&quot;background-color: rgb(255, 255, 255);&quot; face=&quot;Computer modern&quot;&gt;Real position&lt;br&gt;&lt;/font&gt;" style="text;html=1;align=center;verticalAlign=middle;whiteSpace=wrap;rounded=0;" vertex="1" parent="1">
          <mxGeometry x="230" y="670" width="80" height="30" as="geometry" />
        </mxCell>
        <mxCell id="-uq1_uJ6FHPWzIbG6p9E-81" value="&lt;font face=&quot;Computer modern&quot;&gt;Acceptable threshold&lt;br&gt;&lt;/font&gt;" style="text;html=1;align=center;verticalAlign=middle;whiteSpace=wrap;rounded=0;" vertex="1" parent="1">
          <mxGeometry x="340" y="650" width="80" height="30" as="geometry" />
        </mxCell>
        <mxCell id="-uq1_uJ6FHPWzIbG6p9E-83" value="" style="endArrow=classic;html=1;rounded=0;" edge="1" parent="1">
          <mxGeometry width="50" height="50" relative="1" as="geometry">
            <mxPoint x="400" y="600" as="sourcePoint" />
            <mxPoint x="360" y="610" as="targetPoint" />
          </mxGeometry>
        </mxCell>
        <mxCell id="-uq1_uJ6FHPWzIbG6p9E-84" value="" style="endArrow=classic;html=1;rounded=0;" edge="1" parent="1">
          <mxGeometry width="50" height="50" relative="1" as="geometry">
            <mxPoint x="340" y="620" as="sourcePoint" />
            <mxPoint x="330" y="660" as="targetPoint" />
          </mxGeometry>
        </mxCell>
        <mxCell id="-uq1_uJ6FHPWzIbG6p9E-85" value="" style="endArrow=classic;html=1;rounded=0;" edge="1" parent="1">
          <mxGeometry width="50" height="50" relative="1" as="geometry">
            <mxPoint x="360" y="610" as="sourcePoint" />
            <mxPoint x="340" y="620" as="targetPoint" />
          </mxGeometry>
        </mxCell>
        <mxCell id="-uq1_uJ6FHPWzIbG6p9E-86" value="" style="endArrow=classic;html=1;rounded=0;" edge="1" parent="1">
          <mxGeometry width="50" height="50" relative="1" as="geometry">
            <mxPoint x="430" y="630" as="sourcePoint" />
            <mxPoint x="370" y="630" as="targetPoint" />
          </mxGeometry>
        </mxCell>
        <mxCell id="-uq1_uJ6FHPWzIbG6p9E-87" value="" style="endArrow=classic;html=1;rounded=0;" edge="1" parent="1">
          <mxGeometry width="50" height="50" relative="1" as="geometry">
            <mxPoint x="500" y="560" as="sourcePoint" />
            <mxPoint x="430" y="630" as="targetPoint" />
          </mxGeometry>
        </mxCell>
        <mxCell id="-uq1_uJ6FHPWzIbG6p9E-88" value="" style="endArrow=classic;html=1;rounded=0;" edge="1" parent="1">
          <mxGeometry width="50" height="50" relative="1" as="geometry">
            <mxPoint x="370" y="630" as="sourcePoint" />
            <mxPoint x="340" y="670" as="targetPoint" />
          </mxGeometry>
        </mxCell>
        <mxCell id="-uq1_uJ6FHPWzIbG6p9E-89" value="" style="ellipse;whiteSpace=wrap;html=1;aspect=fixed;" vertex="1" parent="1">
          <mxGeometry x="450" y="740" width="20" height="20" as="geometry" />
        </mxCell>
        <mxCell id="-uq1_uJ6FHPWzIbG6p9E-91" value="" style="endArrow=classic;html=1;rounded=0;" edge="1" parent="1" target="-uq1_uJ6FHPWzIbG6p9E-58">
          <mxGeometry width="50" height="50" relative="1" as="geometry">
            <mxPoint x="460" y="560" as="sourcePoint" />
            <mxPoint x="400" y="600" as="targetPoint" />
          </mxGeometry>
        </mxCell>
        <mxCell id="-uq1_uJ6FHPWzIbG6p9E-58" value="" style="ellipse;whiteSpace=wrap;html=1;aspect=fixed;" vertex="1" parent="1">
          <mxGeometry x="450" y="550" width="20" height="20" as="geometry" />
        </mxCell>
        <mxCell id="-uq1_uJ6FHPWzIbG6p9E-92" value="" style="endArrow=classic;html=1;rounded=0;" edge="1" parent="1">
          <mxGeometry width="50" height="50" relative="1" as="geometry">
            <mxPoint x="500" y="600" as="sourcePoint" />
            <mxPoint x="420" y="690" as="targetPoint" />
          </mxGeometry>
        </mxCell>
        <mxCell id="-uq1_uJ6FHPWzIbG6p9E-94" value="" style="endArrow=classic;html=1;rounded=0;" edge="1" parent="1">
          <mxGeometry width="50" height="50" relative="1" as="geometry">
            <mxPoint x="420" y="690" as="sourcePoint" />
            <mxPoint x="390" y="690" as="targetPoint" />
          </mxGeometry>
        </mxCell>
        <mxCell id="-uq1_uJ6FHPWzIbG6p9E-95" value="" style="endArrow=classic;html=1;rounded=0;" edge="1" parent="1">
          <mxGeometry width="50" height="50" relative="1" as="geometry">
            <mxPoint x="390" y="690" as="sourcePoint" />
            <mxPoint x="360" y="690" as="targetPoint" />
          </mxGeometry>
        </mxCell>
        <mxCell id="-uq1_uJ6FHPWzIbG6p9E-96" value="" style="endArrow=classic;html=1;rounded=0;entryX=0;entryY=1;entryDx=0;entryDy=0;" edge="1" parent="1">
          <mxGeometry width="50" height="50" relative="1" as="geometry">
            <mxPoint x="360" y="690" as="sourcePoint" />
            <mxPoint x="340" y="670" as="targetPoint" />
          </mxGeometry>
        </mxCell>
        <mxCell id="-uq1_uJ6FHPWzIbG6p9E-97" value="" style="endArrow=classic;html=1;rounded=0;" edge="1" parent="1">
          <mxGeometry width="50" height="50" relative="1" as="geometry">
            <mxPoint x="400" y="750" as="sourcePoint" />
            <mxPoint x="340" y="700" as="targetPoint" />
          </mxGeometry>
        </mxCell>
        <mxCell id="-uq1_uJ6FHPWzIbG6p9E-100" value="" style="endArrow=classic;html=1;rounded=0;" edge="1" parent="1">
          <mxGeometry width="50" height="50" relative="1" as="geometry">
            <mxPoint x="410" y="720" as="sourcePoint" />
            <mxPoint x="400" y="749.76" as="targetPoint" />
          </mxGeometry>
        </mxCell>
        <mxCell id="-uq1_uJ6FHPWzIbG6p9E-101" value="" style="endArrow=classic;html=1;rounded=0;" edge="1" parent="1">
          <mxGeometry width="50" height="50" relative="1" as="geometry">
            <mxPoint x="460" y="750" as="sourcePoint" />
            <mxPoint x="410" y="720" as="targetPoint" />
          </mxGeometry>
        </mxCell>
        <mxCell id="-uq1_uJ6FHPWzIbG6p9E-102" value="" style="ellipse;whiteSpace=wrap;html=1;aspect=fixed;" vertex="1" parent="1">
          <mxGeometry x="490" y="740" width="20" height="20" as="geometry" />
        </mxCell>
        <mxCell id="-uq1_uJ6FHPWzIbG6p9E-103" value="" style="ellipse;whiteSpace=wrap;html=1;aspect=fixed;" vertex="1" parent="1">
          <mxGeometry x="490" y="700" width="20" height="20" as="geometry" />
        </mxCell>
        <mxCell id="-uq1_uJ6FHPWzIbG6p9E-105" value="" style="endArrow=classic;html=1;rounded=0;" edge="1" parent="1">
          <mxGeometry width="50" height="50" relative="1" as="geometry">
            <mxPoint x="500" y="750" as="sourcePoint" />
            <mxPoint x="450" y="710" as="targetPoint" />
          </mxGeometry>
        </mxCell>
        <mxCell id="-uq1_uJ6FHPWzIbG6p9E-106" value="" style="endArrow=classic;html=1;rounded=0;" edge="1" parent="1">
          <mxGeometry width="50" height="50" relative="1" as="geometry">
            <mxPoint x="450" y="710" as="sourcePoint" />
            <mxPoint x="380" y="720" as="targetPoint" />
          </mxGeometry>
        </mxCell>
        <mxCell id="-uq1_uJ6FHPWzIbG6p9E-107" value="" style="endArrow=classic;html=1;rounded=0;" edge="1" parent="1">
          <mxGeometry width="50" height="50" relative="1" as="geometry">
            <mxPoint x="380" y="720" as="sourcePoint" />
            <mxPoint x="340" y="690" as="targetPoint" />
          </mxGeometry>
        </mxCell>
        <mxCell id="-uq1_uJ6FHPWzIbG6p9E-108" value="$$P_{i, 0,1}$$" style="text;html=1;align=center;verticalAlign=middle;whiteSpace=wrap;rounded=0;" vertex="1" parent="1">
          <mxGeometry x="90" y="700" width="30" height="20" as="geometry" />
        </mxCell>
        <mxCell id="-uq1_uJ6FHPWzIbG6p9E-109" value="$$P_{i, 0,0}$$" style="text;html=1;align=center;verticalAlign=middle;whiteSpace=wrap;rounded=0;" vertex="1" parent="1">
          <mxGeometry x="90" y="735" width="30" height="30" as="geometry" />
        </mxCell>
        <mxCell id="-uq1_uJ6FHPWzIbG6p9E-111" value="$$P_{i, 0,k-1}$$" style="text;html=1;align=center;verticalAlign=middle;whiteSpace=wrap;rounded=0;" vertex="1" parent="1">
          <mxGeometry x="70" y="590" width="50" height="20" as="geometry" />
        </mxCell>
        <mxCell id="-uq1_uJ6FHPWzIbG6p9E-112" value="$$P_{i, 0,k}$$" style="text;html=1;align=center;verticalAlign=middle;whiteSpace=wrap;rounded=0;" vertex="1" parent="1">
          <mxGeometry x="80" y="550" width="40" height="20" as="geometry" />
        </mxCell>
        <mxCell id="-uq1_uJ6FHPWzIbG6p9E-113" value="$$P_{i, 1,0}$$" style="text;html=1;align=center;verticalAlign=middle;whiteSpace=wrap;rounded=0;" vertex="1" parent="1">
          <mxGeometry x="150" y="760" width="40" height="20" as="geometry" />
        </mxCell>
        <mxCell id="-uq1_uJ6FHPWzIbG6p9E-114" value="$$P_{i, j-1,0}$$" style="text;html=1;align=center;verticalAlign=middle;whiteSpace=wrap;rounded=0;" vertex="1" parent="1">
          <mxGeometry x="440" y="760" width="40" height="20" as="geometry" />
        </mxCell>
        <mxCell id="-uq1_uJ6FHPWzIbG6p9E-115" value="$$P_{i, j,0}$$" style="text;html=1;align=center;verticalAlign=middle;whiteSpace=wrap;rounded=0;" vertex="1" parent="1">
          <mxGeometry x="490" y="760" width="40" height="20" as="geometry" />
        </mxCell>
        <mxCell id="-uq1_uJ6FHPWzIbG6p9E-116" value="$$P_i$$" style="text;html=1;align=center;verticalAlign=middle;whiteSpace=wrap;rounded=0;" vertex="1" parent="1">
          <mxGeometry x="362.5" y="525" width="20" height="30" as="geometry" />
        </mxCell>
        <mxCell id="-uq1_uJ6FHPWzIbG6p9E-117" value="$$P_{i, j,1}$$" style="text;html=1;align=center;verticalAlign=middle;whiteSpace=wrap;rounded=0;" vertex="1" parent="1">
          <mxGeometry x="510" y="700" width="40" height="20" as="geometry" />
        </mxCell>
        <mxCell id="-uq1_uJ6FHPWzIbG6p9E-118" value="$$P_{i, j,k-1}$$" style="text;html=1;align=center;verticalAlign=middle;whiteSpace=wrap;rounded=0;" vertex="1" parent="1">
          <mxGeometry x="510" y="590" width="50" height="20" as="geometry" />
        </mxCell>
        <mxCell id="-uq1_uJ6FHPWzIbG6p9E-119" value="$$P_{i, j-1,k}$$" style="text;html=1;align=center;verticalAlign=middle;whiteSpace=wrap;rounded=0;" vertex="1" parent="1">
          <mxGeometry x="435" y="530" width="50" height="20" as="geometry" />
        </mxCell>
        <mxCell id="-uq1_uJ6FHPWzIbG6p9E-121" value="$$P_{i, j,k}$$" style="text;html=1;align=center;verticalAlign=middle;whiteSpace=wrap;rounded=0;" vertex="1" parent="1">
          <mxGeometry x="510" y="550" width="50" height="20" as="geometry" />
        </mxCell>
        <mxCell id="-uq1_uJ6FHPWzIbG6p9E-122" value="$$P_{i, 1,k}$$" style="text;html=1;align=center;verticalAlign=middle;whiteSpace=wrap;rounded=0;" vertex="1" parent="1">
          <mxGeometry x="145" y="530" width="50" height="20" as="geometry" />
        </mxCell>
        <mxCell id="-uq1_uJ6FHPWzIbG6p9E-123" value="$$P_r$$" style="text;html=1;align=center;verticalAlign=middle;whiteSpace=wrap;rounded=0;" vertex="1" parent="1">
          <mxGeometry x="310" y="665" width="20" height="30" as="geometry" />
        </mxCell>
        <mxCell id="-uq1_uJ6FHPWzIbG6p9E-126" value="$$1$$" style="text;html=1;align=center;verticalAlign=middle;whiteSpace=wrap;rounded=0;" vertex="1" parent="1">
          <mxGeometry x="413" y="560" width="17.5" height="30" as="geometry" />
        </mxCell>
        <mxCell id="-uq1_uJ6FHPWzIbG6p9E-127" value="$$2$$" style="text;html=1;align=center;verticalAlign=middle;whiteSpace=wrap;rounded=0;" vertex="1" parent="1">
          <mxGeometry x="372.5" y="580" width="17.5" height="25" as="geometry" />
        </mxCell>
        <mxCell id="-uq1_uJ6FHPWzIbG6p9E-128" value="$$3$$" style="text;html=1;align=center;verticalAlign=middle;whiteSpace=wrap;rounded=0;" vertex="1" parent="1">
          <mxGeometry x="342.5" y="590" width="17.5" height="25" as="geometry" />
        </mxCell>
        <mxCell id="-uq1_uJ6FHPWzIbG6p9E-129" value="$$4$$" style="text;html=1;align=center;verticalAlign=middle;whiteSpace=wrap;rounded=0;" vertex="1" parent="1">
          <mxGeometry x="321.25" y="615" width="17.5" height="25" as="geometry" />
        </mxCell>
      </root>
    </mxGraphModel>
  </diagram>
</mxfile>
